<?xml version="1.0" encoding="UTF-8" standalone="yes"?><svg xmlns="http://www.w3.org/2000/svg" xmlns:xlink="http://www.w3.org/1999/xlink" height="700pt" style="width:577px;height:700px;" version="1.1" viewBox="0 0 577 700" width="577pt"><defs><filter height="300%" id="f1" width="300%" x="-1" y="-1"><feGaussianBlur result="blurOut" stdDeviation="2.0"/><feColorMatrix in="blurOut" result="blurOut2" type="matrix" values="0 0 0 0 0 0 0 0 0 0 0 0 0 0 0 0 0 0 .4 0"/><feOffset dx="4.0" dy="4.0" in="blurOut2" result="blurOut3"/><feBlend in="SourceGraphic" in2="blurOut3" mode="normal"/></filter></defs><g><rect fill="#FFFFFF" filter="url(#f1)" height="132.5625" style="stroke: #000000; stroke-width: 2.0;" width="251" x="257.5" y="209.8438"/><rect fill="#FFFFFF" filter="url(#f1)" height="59.2813" style="stroke: #000000; stroke-width: 2.0;" width="231" x="267.5" y="276.125"/><rect fill="#FFFFFF" filter="url(#f1)" height="132.5625" style="stroke: #000000; stroke-width: 2.0;" width="311" x="257.5" y="398.5469"/><rect fill="#FFFFFF" filter="url(#f1)" height="59.2813" style="stroke: #000000; stroke-width: 2.0;" width="291" x="267.5" y="464.8281"/><rect fill="#FFFFFF" filter="url(#f1)" height="59.2813" style="stroke: #000000; stroke-width: 2.0;" width="273" x="267.5" y="545.1094"/><line style="stroke: #A80036; stroke-width: 1.0; stroke-dasharray: 5.0,5.0;" x1="35" x2="35" y1="34.1406" y2="663.5313"/><line style="stroke: #A80036; stroke-width: 1.0; stroke-dasharray: 5.0,5.0;" x1="166.5" x2="166.5" y1="34.1406" y2="663.5313"/><line style="stroke: #A80036; stroke-width: 1.0; stroke-dasharray: 5.0,5.0;" x1="325.5" x2="325.5" y1="34.1406" y2="663.5313"/><rect fill="#FEFECE" filter="url(#f1)" height="29.1406" style="stroke: #A80036; stroke-width: 1.5;" width="57" x="5" y="0"/><text fill="#000000" font-size="13" lengthAdjust="spacingAndGlyphs" textLength="43" x="12" y="20">Button</text><rect fill="#FEFECE" filter="url(#f1)" height="29.1406" style="stroke: #A80036; stroke-width: 1.5;" width="57" x="5" y="661.8594"/><text fill="#000000" font-size="13" lengthAdjust="spacingAndGlyphs" textLength="43" x="12" y="681.8594">Button</text><rect fill="#FEFECE" filter="url(#f1)" height="29.1406" style="stroke: #A80036; stroke-width: 1.5;" width="46" x="141.5" y="0"/><text fill="#000000" font-size="13" lengthAdjust="spacingAndGlyphs" textLength="32" x="148.5" y="20">main</text><rect fill="#FEFECE" filter="url(#f1)" height="29.1406" style="stroke: #A80036; stroke-width: 1.5;" width="46" x="141.5" y="661.8594"/><text fill="#000000" font-size="13" lengthAdjust="spacingAndGlyphs" textLength="32" x="148.5" y="681.8594">main</text><rect fill="#FEFECE" filter="url(#f1)" height="29.1406" style="stroke: #A80036; stroke-width: 1.5;" width="92" x="277.5" y="0"/><text fill="#000000" font-size="13" lengthAdjust="spacingAndGlyphs" textLength="78" x="284.5" y="20">CottonState</text><rect fill="#FEFECE" filter="url(#f1)" height="29.1406" style="stroke: #A80036; stroke-width: 1.5;" width="92" x="277.5" y="661.8594"/><text fill="#000000" font-size="13" lengthAdjust="spacingAndGlyphs" textLength="78" x="284.5" y="681.8594">CottonState</text><polygon fill="#A80036" points="154.5,61.1406,164.5,65.1406,154.5,69.1406,158.5,65.1406" style="stroke: #A80036; stroke-width: 1.0;"/><line style="stroke: #A80036; stroke-width: 1.0;" x1="35.5" x2="160.5" y1="65.1406" y2="65.1406"/><text fill="#000000" font-size="13" lengthAdjust="spacingAndGlyphs" textLength="91" x="42.5" y="61.1406">states[cotton]</text><polygon fill="#A80036" points="313.5,90.2813,323.5,94.2813,313.5,98.2813,317.5,94.2813" style="stroke: #A80036; stroke-width: 1.0;"/><line style="stroke: #A80036; stroke-width: 1.0;" x1="166.5" x2="319.5" y1="94.2813" y2="94.2813"/><text fill="#000000" font-size="13" lengthAdjust="spacingAndGlyphs" textLength="41" x="173.5" y="90.2813">create</text><polygon fill="#A80036" points="154.5,119.4219,164.5,123.4219,154.5,127.4219,158.5,123.4219" style="stroke: #A80036; stroke-width: 1.0;"/><line style="stroke: #A80036; stroke-width: 1.0;" x1="35.5" x2="160.5" y1="123.4219" y2="123.4219"/><text fill="#000000" font-size="13" lengthAdjust="spacingAndGlyphs" textLength="107" x="42.5" y="119.4219">waterLevel(level)</text><polygon fill="#A80036" points="313.5,148.5625,323.5,152.5625,313.5,156.5625,317.5,152.5625" style="stroke: #A80036; stroke-width: 1.0;"/><line style="stroke: #A80036; stroke-width: 1.0;" x1="166.5" x2="319.5" y1="152.5625" y2="152.5625"/><text fill="#000000" font-size="13" lengthAdjust="spacingAndGlyphs" textLength="135" x="173.5" y="148.5625">set waterLevel (level)</text><line style="stroke: #A80036; stroke-width: 1.0;" x1="325.5" x2="367.5" y1="181.8438" y2="181.8438"/><line style="stroke: #A80036; stroke-width: 1.0;" x1="367.5" x2="367.5" y1="181.8438" y2="194.8438"/><line style="stroke: #A80036; stroke-width: 1.0;" x1="325.5" x2="367.5" y1="194.8438" y2="194.8438"/><polygon fill="#A80036" points="335.5,190.8438,325.5,194.8438,335.5,198.8438,331.5,194.8438" style="stroke: #A80036; stroke-width: 1.0;"/><text fill="#000000" font-size="13" lengthAdjust="spacingAndGlyphs" textLength="139" x="332.5" y="177.7031">OperationLight = true</text><rect fill="none" height="132.5625" style="stroke: #000000; stroke-width: 2.0;" width="251" x="257.5" y="209.8438"/><polygon fill="#EEEEEE" points="257.5,209.8438,334.5,209.8438,334.5,216.8438,324.5,226.8438,257.5,226.8438,257.5,209.8438" style="stroke: #000000; stroke-width: 2.0;"/><text fill="#000000" font-size="13" font-weight="bold" lengthAdjust="spacingAndGlyphs" textLength="32" x="272.5" y="223.8438">loop</text><text fill="#000000" font-size="11" font-weight="bold" lengthAdjust="spacingAndGlyphs" textLength="81" x="349.5" y="222.8438">[waterLevel]</text><line style="stroke: #A80036; stroke-width: 1.0;" x1="325.5" x2="367.5" y1="248.125" y2="248.125"/><line style="stroke: #A80036; stroke-width: 1.0;" x1="367.5" x2="367.5" y1="248.125" y2="261.125"/><line style="stroke: #A80036; stroke-width: 1.0;" x1="325.5" x2="367.5" y1="261.125" y2="261.125"/><polygon fill="#A80036" points="335.5,257.125,325.5,261.125,335.5,265.125,331.5,261.125" style="stroke: #A80036; stroke-width: 1.0;"/><text fill="#000000" font-size="13" lengthAdjust="spacingAndGlyphs" textLength="72" x="332.5" y="243.9844">FillingWater</text><rect fill="none" height="59.2813" style="stroke: #000000; stroke-width: 2.0;" width="231" x="267.5" y="276.125"/><polygon fill="#EEEEEE" points="267.5,276.125,331.5,276.125,331.5,283.125,321.5,293.125,267.5,293.125,267.5,276.125" style="stroke: #000000; stroke-width: 2.0;"/><text fill="#000000" font-size="13" font-weight="bold" lengthAdjust="spacingAndGlyphs" textLength="19" x="282.5" y="290.125">alt</text><text fill="#000000" font-size="11" font-weight="bold" lengthAdjust="spacingAndGlyphs" textLength="134" x="346.5" y="289.125">[waterLevel == 20%]</text><line style="stroke: #A80036; stroke-width: 1.0;" x1="325.5" x2="367.5" y1="314.4063" y2="314.4063"/><line style="stroke: #A80036; stroke-width: 1.0;" x1="367.5" x2="367.5" y1="314.4063" y2="327.4063"/><line style="stroke: #A80036; stroke-width: 1.0;" x1="325.5" x2="367.5" y1="327.4063" y2="327.4063"/><polygon fill="#A80036" points="335.5,323.4063,325.5,327.4063,335.5,331.4063,331.5,327.4063" style="stroke: #A80036; stroke-width: 1.0;"/><text fill="#000000" font-size="13" lengthAdjust="spacingAndGlyphs" textLength="154" x="332.5" y="310.2656">washingUseSoap = true</text><line style="stroke: #A80036; stroke-width: 1.0;" x1="325.5" x2="367.5" y1="370.5469" y2="370.5469"/><line style="stroke: #A80036; stroke-width: 1.0;" x1="367.5" x2="367.5" y1="370.5469" y2="383.5469"/><line style="stroke: #A80036; stroke-width: 1.0;" x1="325.5" x2="367.5" y1="383.5469" y2="383.5469"/><polygon fill="#A80036" points="335.5,379.5469,325.5,383.5469,335.5,387.5469,331.5,383.5469" style="stroke: #A80036; stroke-width: 1.0;"/><text fill="#000000" font-size="13" lengthAdjust="spacingAndGlyphs" textLength="164" x="332.5" y="366.4063">washingUseBleach = true</text><rect fill="none" height="132.5625" style="stroke: #000000; stroke-width: 2.0;" width="311" x="257.5" y="398.5469"/><polygon fill="#EEEEEE" points="257.5,398.5469,334.5,398.5469,334.5,405.5469,324.5,415.5469,257.5,415.5469,257.5,398.5469" style="stroke: #000000; stroke-width: 2.0;"/><text fill="#000000" font-size="13" font-weight="bold" lengthAdjust="spacingAndGlyphs" textLength="32" x="272.5" y="412.5469">loop</text><text fill="#000000" font-size="11" font-weight="bold" lengthAdjust="spacingAndGlyphs" textLength="178" x="349.5" y="411.5469">[washing duration &lt;85 min]</text><line style="stroke: #A80036; stroke-width: 1.0;" x1="325.5" x2="367.5" y1="436.8281" y2="436.8281"/><line style="stroke: #A80036; stroke-width: 1.0;" x1="367.5" x2="367.5" y1="436.8281" y2="449.8281"/><line style="stroke: #A80036; stroke-width: 1.0;" x1="325.5" x2="367.5" y1="449.8281" y2="449.8281"/><polygon fill="#A80036" points="335.5,445.8281,325.5,449.8281,335.5,453.8281,331.5,449.8281" style="stroke: #A80036; stroke-width: 1.0;"/><text fill="#000000" font-size="13" lengthAdjust="spacingAndGlyphs" textLength="53" x="332.5" y="432.6875">Washing</text><rect fill="none" height="59.2813" style="stroke: #000000; stroke-width: 2.0;" width="291" x="267.5" y="464.8281"/><polygon fill="#EEEEEE" points="267.5,464.8281,331.5,464.8281,331.5,471.8281,321.5,481.8281,267.5,481.8281,267.5,464.8281" style="stroke: #000000; stroke-width: 2.0;"/><text fill="#000000" font-size="13" font-weight="bold" lengthAdjust="spacingAndGlyphs" textLength="19" x="282.5" y="478.8281">alt</text><text fill="#000000" font-size="11" font-weight="bold" lengthAdjust="spacingAndGlyphs" textLength="167" x="346.5" y="477.8281">[waterDuration == 40min]</text><line style="stroke: #A80036; stroke-width: 1.0;" x1="325.5" x2="367.5" y1="503.1094" y2="503.1094"/><line style="stroke: #A80036; stroke-width: 1.0;" x1="367.5" x2="367.5" y1="503.1094" y2="516.1094"/><line style="stroke: #A80036; stroke-width: 1.0;" x1="325.5" x2="367.5" y1="516.1094" y2="516.1094"/><polygon fill="#A80036" points="335.5,512.1094,325.5,516.1094,335.5,520.1094,331.5,516.1094" style="stroke: #A80036; stroke-width: 1.0;"/><text fill="#000000" font-size="13" lengthAdjust="spacingAndGlyphs" textLength="214" x="332.5" y="498.9688">washingUseFabricSoftener = true</text><rect fill="none" height="59.2813" style="stroke: #000000; stroke-width: 2.0;" width="273" x="267.5" y="545.1094"/><polygon fill="#EEEEEE" points="267.5,545.1094,344.5,545.1094,344.5,552.1094,334.5,562.1094,267.5,562.1094,267.5,545.1094" style="stroke: #000000; stroke-width: 2.0;"/><text fill="#000000" font-size="13" font-weight="bold" lengthAdjust="spacingAndGlyphs" textLength="32" x="282.5" y="559.1094">loop</text><text fill="#000000" font-size="11" font-weight="bold" lengthAdjust="spacingAndGlyphs" textLength="176" x="359.5" y="558.1094">[spinningDuration&lt; 10 min]</text><line style="stroke: #A80036; stroke-width: 1.0;" x1="325.5" x2="367.5" y1="583.3906" y2="583.3906"/><line style="stroke: #A80036; stroke-width: 1.0;" x1="367.5" x2="367.5" y1="583.3906" y2="596.3906"/><line style="stroke: #A80036; stroke-width: 1.0;" x1="325.5" x2="367.5" y1="596.3906" y2="596.3906"/><polygon fill="#A80036" points="335.5,592.3906,325.5,596.3906,335.5,600.3906,331.5,596.3906" style="stroke: #A80036; stroke-width: 1.0;"/><text fill="#000000" font-size="13" lengthAdjust="spacingAndGlyphs" textLength="55" x="332.5" y="579.25">Spinning</text><line style="stroke: #A80036; stroke-width: 1.0;" x1="325.5" x2="367.5" y1="632.5313" y2="632.5313"/><line style="stroke: #A80036; stroke-width: 1.0;" x1="367.5" x2="367.5" y1="632.5313" y2="645.5313"/><line style="stroke: #A80036; stroke-width: 1.0;" x1="325.5" x2="367.5" y1="645.5313" y2="645.5313"/><polygon fill="#A80036" points="335.5,641.5313,325.5,645.5313,335.5,649.5313,331.5,645.5313" style="stroke: #A80036; stroke-width: 1.0;"/><text fill="#000000" font-size="13" lengthAdjust="spacingAndGlyphs" textLength="143" x="332.5" y="628.3906">OperationLight = false</text></g></svg>